<?xml version="1.0" encoding="UTF-8"?>
<svg version="1.1" viewBox="0 0 1600 1600" width="1280" height="1280" xmlns="http://www.w3.org/2000/svg">
<path transform="translate(0)" d="m0 0h1600v1600h-1600v-1600z" fill="#FCFDFD"/>
<path transform="translate(793 427)" d="m0 0c1.58-0.0184 1.58-0.0184 3.19-0.0371 6.16-0.0115 12.3 0.106 18.1 2.22 0.66 0.66 1.32 1.32 2 2 1.85 0.763 3.73 1.46 5.62 2.12 1 0.353 2.01 0.706 3.04 1.07 1.16 0.398 1.16 0.398 2.34 0.805v2c1.21 0.278 1.21 0.278 2.44 0.562 4.05 1.63 6.84 3.78 10.2 6.52 2.28 1.86 4.63 3.6 6.99 5.36 4.4 3.43 7.84 7.26 11.4 11.6 1.14 1.31 1.14 1.31 2.3 2.65 10.1 11.8 18.1 24.3 24.7 38.4 0.675 1.38 0.675 1.38 1.36 2.79 7.58 15.9 11.4 33.2 15.6 50.2l152 1c1.87 3.74 2.5 6.15 3.12 10.2 0.199 1.28 0.397 2.56 0.602 3.88 0.213 1.42 0.426 2.83 0.639 4.25 0.23 1.49 0.46 2.99 0.691 4.48 0.497 3.23 0.991 6.45 1.48 9.68 0.787 5.18 1.58 10.4 2.38 15.5 0.135 0.879 0.271 1.76 0.411 2.66 0.277 1.8 0.554 3.59 0.831 5.39 0.425 2.75 0.848 5.51 1.27 8.26 2.71 17.6 5.51 35.3 8.32 52.9 4.47 28.1 8.9 56.2 13.3 84.3 0.222 1.43 0.444 2.87 0.666 4.3 1.88 12.1 3.75 24.3 5.58 36.4 2.15 14.3 4.35 28.5 6.66 42.8 3.31 20.4 6.5 40.8 9.72 61.3 0.566 3.6 1.13 7.19 1.7 10.8 4.91 31.2 9.79 62.3 14.5 93.5 2 13.1 4.06 26.2 6.19 39.3 2.29 14.1 4.52 28.3 6.75 42.4 0.464 2.95 0.929 5.9 1.4 8.85 2.62 16.6 5.19 33.2 7.65 49.8 0.166 1.12 0.166 1.12 0.334 2.26 0.309 2.09 0.616 4.18 0.921 6.27 0.174 1.19 0.349 2.38 0.529 3.61 0.372 2.79 0.372 2.79 0.372 4.79-66.7 0.0171-133 0.033-200 0.0423-0.987 1.38e-4 -1.97 2.76e-4 -2.99 4.18e-4 -21.4 0.00299-42.9 0.00576-64.3 0.0083-10.5 0.00125-21 0.00254-31.5 0.00387-1.05 1.31e-4 -2.09 2.62e-4 -3.17 3.96e-4 -33.9 0.00427-67.9 0.0118-102 0.021-34.9 0.00942-69.7 0.0156-105 0.0176-4.92 2.88e-4 -9.84 6.14e-4 -14.8 9.62e-4 -1.45 1.01e-4 -1.45 1.01e-4 -2.93 2.04e-4 -15.6 0.00118-31.2 0.00583-46.9 0.0118-15.7 0.00587-31.4 0.00814-47 0.00667-9.33-7.64e-4 -18.7 0.00129-28 0.0073-6.22 0.00373-12.4 0.00388-18.7 0.00103-3.55-0.00152-7.1-0.0014-10.7 0.00305-3.81 0.00475-7.63 0.00188-11.4-0.00184-1.12 0.00263-2.24 0.00525-3.4 0.00796-1.01-0.00225-2.01-0.00449-3.05-0.00681-0.873 1.56e-4 -1.75 3.12e-4 -2.65 4.73e-4 -1.97-0.125-1.97-0.125-2.97-1.12 0.13-9.33 1.81-18.5 3.48-27.7 0.255-1.42 0.509-2.84 0.763-4.25 0.543-3.03 1.09-6.06 1.64-9.08 0.877-4.82 1.75-9.65 2.61-14.5 1.06-5.9 2.12-11.8 3.19-17.7 2.81-15.6 5.58-31.1 8.35-46.7 0.692-3.89 1.38-7.78 2.08-11.7 3.6-20.2 7.18-40.5 10.7-60.7 0.998-5.73 2-11.5 3-17.2 0.155-0.888 0.311-1.78 0.471-2.69 0.461-2.63 0.923-5.27 1.38-7.9 0.546-3.12 1.09-6.23 1.64-9.35 0.136-0.774 0.271-1.55 0.411-2.35 0.718-4.1 1.43-8.21 2.14-12.3 1.99-11.5 4.02-23 6.08-34.5 0.131-0.734 0.262-1.47 0.397-2.22 0.544-3.04 1.09-6.08 1.63-9.12 4.18-23.4 8.34-46.7 12.3-70.1 3.03-18 6.27-36 9.61-54 3.18-17.1 6.16-34.2 9.07-51.4 3.5-20.6 7.15-41.1 10.8-61.7 0.478-2.68 0.956-5.36 1.43-8.04 0.118-0.664 0.237-1.33 0.359-2.01 1.73-9.69 3.41-19.4 5.07-29.1 0.606-3.52 1.21-7.03 1.82-10.5 0.381-2.22 0.758-4.44 1.13-6.66 0.514-3.06 1.04-6.11 1.57-9.16 0.146-0.893 0.293-1.79 0.444-2.71 0.217-1.23 0.217-1.23 0.439-2.49 0.18-1.06 0.18-1.06 0.364-2.15 0.833-2.81 1.86-4.77 3.63-7.12 2.54-0.615 2.54-0.615 5.64-0.601 1.76-0.0103 1.76-0.0103 3.56-0.0208 1.93 0.027 1.93 0.027 3.91 0.0545 1.37 0.00141 2.74 6.19e-4 4.11-0.00221 3.72-0.00144 7.44 0.028 11.2 0.0629 3.89 0.0312 7.78 0.0342 11.7 0.0401 7.36 0.0156 14.7 0.0566 22.1 0.107 8.38 0.0559 16.8 0.0834 25.1 0.108 17.2 0.0523 34.5 0.14 51.7 0.252-0.00408-0.689-0.00816-1.38-0.0124-2.09-0.00317-0.903-0.00635-1.81-0.00962-2.74-0.00408-0.895-0.00816-1.79-0.0124-2.71 0.036-2.58 0.311-4.94 0.882-7.46 0.183-0.825 0.366-1.65 0.555-2.5 0.197-0.825 0.394-1.65 0.597-2.5 0.193-0.825 0.386-1.65 0.585-2.5 0.599-2.5 1.22-5 1.85-7.5 0.221-0.874 0.442-1.75 0.67-2.65 4.02-15.8 4.02-15.8 7.82-23.2 1-1.97 1.97-3.95 2.93-5.93 6.23-12.8 12.9-26.2 23.1-36.2 1-1.21 2-2.41 3-3.62 14.3-16.4 32.8-27.5 54.7-27.6z" fill="#F84F14"/>
<path transform="translate(814,691)" d="m0 0c0.861 0.0411 1.72 0.0822 2.61 0.125 27.9 1.49 52.8 8.07 77.2 21.6 1.54 0.855 3.1 1.69 4.66 2.52 4.12 2.2 7.42 4.21 10.6 7.72 1.53 1.25 3.07 2.48 4.62 3.69 7.91 6.27 15.4 13 22.4 20.3 0.539 0.556 1.08 1.11 1.63 1.68 8.58 9.27 15 20.3 20.9 31.4 0.421 0.797 0.843 1.59 1.28 2.42 3.34 6.47 5.38 12.9 7.22 20 0.966 3.68 1.93 7.34 3.06 11 2.33 8.91 2.15 18 2.19 27.2 0.0309 1.91 0.0309 1.91 0.0625 3.87 0.0346 8.32-0.203 16.2-6.31 22.6h-2c-0.342 0.895-0.342 0.895-0.691 1.81-2.77 4.64-8.37 6.48-13.3 8.19-2.93 0.69-5.87 1.14-8.84 1.57-1.25 0.187-1.25 0.187-2.52 0.377-8.38 1.22-16.8 2.14-25.2 2.93-0.826 0.0798-1.65 0.16-2.5 0.242-27.6 2.66-55.4 4.58-83.1 6.6-3.88 0.283-7.76 0.569-11.6 0.856-2.47 0.18-4.93 0.36-7.4 0.54-1.65 0.122-1.65 0.122-3.33 0.247-10.5 0.759-21 1.16-31.5 1.47-2.06 0.0575-2.06 0.0575-3.99 1.17-2.46 0.203-4.9 0.353-7.37 0.465-1.53 0.0776-3.07 0.155-4.6 0.233-0.803 0.0391-1.61 0.0782-2.43 0.118-13.9 0.682-27.8 1.55-41.6 3.18-2.07 6.2 2.62 14.2 5.44 19.9 7.22 12.3 18.4 22 30.6 29.1 0.744 0.472 1.49 0.944 2.25 1.43 32.7 20.5 73.5 19.8 110 11.7 15.3-3.55 30.5-8.45 44.3-16.1 0.927-0.516 1.85-1.03 2.81-1.56 0.888-0.495 1.78-0.99 2.69-1.5 1.16-0.619 1.16-0.619 2.35-1.25 6.52-3.49 12.6-7.62 18.4-12.1 2.26-1.68 3.89-2.6 6.71-2.88 7.75 3.87 12.2 15.2 16.5 22.5 1.38 2.33 2.81 4.64 4.23 6.95 2.19 3.67 4.26 7.4 6.25 11.2 0.772 1.47 0.772 1.47 1.56 2.96 1.08 2.88 1.24 3.89 0.00391 6.66-2.44 2.75-2.44 2.75-5 5h-2c-0.247 0.593-0.495 1.19-0.75 1.8-1.44 2.54-2.9 3.74-5.25 5.45-0.701 0.521-1.4 1.04-2.12 1.58-1.88 1.17-1.88 1.17-3.88 1.17-0.33 0.99-0.66 1.98-1 3-2.67 1.94-2.67 1.94-6 4-1.03 0.648-2.05 1.3-3.11 1.96-16.8 10.4-16.8 10.4-25.9 14-0.714 0.307-1.43 0.614-2.16 0.93-5.96 2.51-12 4.35-18.2 6.04-2.69 0.769-5.28 1.6-7.92 2.52-32.6 11-71 9.16-105 5.51-0.862-0.084-1.72-0.168-2.61-0.254-6.27-0.631-6.27-0.631-7.39-1.75-1.38-0.307-2.77-0.563-4.16-0.797-11-1.92-21.3-4.27-31.8-8.2-1.07-0.379-2.14-0.758-3.25-1.15-15.3-5.57-28.7-13.3-41.8-22.9-0.875-0.641-1.75-1.28-2.65-1.94-15.2-11.5-27.9-25.2-38.3-41.1-0.687-1.03-1.37-2.06-2.08-3.12-12.8-20.7-20.1-47.2-20.1-71.6-9.57e-4 -0.808-0.00191-1.62-0.0029-2.45-6.76e-4 -1.7 0.00114-3.4 0.00534-5.1 0.00534-2.57 4.3e-5 -5.14-0.00635-7.71-0.00597-10.9 0.193-21.4 3.01-32.1 0.267-1.04 0.267-1.04 0.539-2.09 1.13-4.33 2.39-8.59 3.89-12.8 0.73-2.06 0.73-2.06 1.27-4.28 1.98-7.65 5.67-14.2 9.5-21 0.858-1.58 1.65-3.19 2.44-4.8 4.45-8.71 10.5-18 17.5-24.9 1.01-1.16 2.01-2.33 3-3.5 8.53-9.8 17.9-19.8 29.2-26.4 1.8-1.08 1.8-1.08 3.21-2.59 11.4-11.4 30.5-18.7 45.6-23.6 1.25-0.487 2.49-0.977 3.73-1.47 20.1-7.6 43.9-9.58 65.3-8.53z" fill="#FCFDFD"/>
<path transform="translate(828 456)" d="m0 0c1.64 1.38 3.26 2.78 4.88 4.19 1.22 1.02 1.22 1.02 2.46 2.05 19.7 16.9 35.3 41 42.5 65.9 0.415 1.31 0.832 2.63 1.25 3.94 0.459 1.48 0.918 2.96 1.38 4.44 0.328 1.03 0.328 1.03 0.663 2.07 1.83 6.07 2.11 10.9 2.71 17.6h-171c-2-4.01-1.44-8.67-0.0781-12.8 0.356-1.05 0.712-2.11 1.08-3.2 0.51-2.45 0.988-4.91 1.44-7.38 1.04-5.49 2.44-10.5 4.56-15.6 0.289-1.11 0.577-2.23 0.875-3.38 1.5-4.85 3.79-9.13 6.12-13.6 0.856-1.73 1.71-3.46 2.56-5.19 2.01-4.03 4.16-7.93 6.44-11.8h2c0.206-0.825 0.413-1.65 0.625-2.5 2.59-6.58 7.24-11.7 12.4-16.5 0.709-0.679 1.42-1.36 2.15-2.06 5.86-5.48 11.9-9.92 18.9-13.9 0.7-0.413 1.4-0.825 2.12-1.25 17.8-9.76 38.9-2.8 54 9.06z" fill="#FCFDFD"/>
<path transform="translate(850 770)" d="m0 0c1.87 1.28 3.77 2.49 5.68 3.7 1.21 0.866 1.21 0.866 2.44 1.75v2c0.572 0.244 1.14 0.487 1.73 0.738 10.2 5.69 16.6 18.9 20.4 29.5 1.73 6.28 2.22 12.2 1.84 18.7-6.55 3.4-13.2 4.08-20.4 4.94-1.35 0.167-2.7 0.334-4.06 0.501-22.2 2.71-44.5 4.84-66.8 6.75-0.823 0.0717-1.65 0.143-2.49 0.217-16.1 1.31-32.2 1.78-48.3 1.78-2.97 0.00224-5.93 0.0206-8.9 0.0393-1.9 0.00293-3.8 0.00492-5.7 0.00586-1.32 0.0108-1.32 0.0108-2.66 0.0218-0.816-0.00308-1.63-0.00615-2.47-0.00932-0.712 0.00143-1.42 0.00285-2.16 0.00432-2.39-0.292-3.98-0.99-6.02-2.25-3.91-7.83 0.058-18.3 2.59-26 1.63-4.69 3.61-8.84 6.41-13 0.575-0.868 1.15-1.74 1.74-2.63 9.92-14.3 22.5-23.6 37.3-32.4 1.05-0.623 1.05-0.623 2.12-1.26 27.5-15 62.6-10.4 87.8 6.8z" fill="#F84F14"/>
</svg>
